<svg width="648" height="511" xmlns="http://www.w3.org/2000/svg" xmlns:xlink="http://www.w3.org/1999/xlink" xml:space="preserve" overflow="hidden" preserveAspectRatio="none" viewBox="0 0 648 511">
<g transform="translate(-544 -104)" pointer-events="visiblePainted">
<path d="M605.569 381.624 481.26 358.299 481.26 358.973 472.294 364.029C428.942 386.587 384.018 405.985 337.873 422.072 331.132 424.229 322.907 426.723 313.47 429.42 335.379 437.307 466.564 483.35 526.764 469.867 567.211 460.834 598.356 424.903 614.4 402.994 618.838 397.015 617.589 388.57 611.61 384.132 609.833 382.813 607.758 381.952 605.569 381.624Z" transform="matrix(1.00129 0 0 1 544 35.9184)"/>
<path d="M155.049 455.037C218.283 440.138 295.47 421.33 331.536 409.6L331.536 409.6 336.929 407.848 344.547 405.219 344.547 405.219C352.637 402.32 360.726 399.286 368.681 396.185L373.872 394.095 379.197 391.938 381.017 391.197 381.017 391.197C427.397 372.119 465.823 351.828 465.823 351.828 440.071 236.417 341.109 165.903 216.395 187.003 212.634 175.069 200.209 168.147 188.082 171.229L176.622 174.195C164.328 177.439 156.815 189.841 159.634 202.238 60.1997 241.001 25.0102 325.604 47.189 424.701L56.0201 464.137C57.6314 471.39 64.8064 475.972 72.0643 474.384 86.6929 471.081 112.512 465.216 142.308 458.205L142.308 458.205 155.791 455.104ZM211.339 189.565C248.848 208.926 279.839 238.885 300.459 275.718 318.739 307.699 331.909 342.341 339.491 378.388L328.435 382.231 326.615 382.837C319.411 347.637 306.669 313.803 288.864 282.595 263.315 239.45 229.81 209.991 190.374 194.958ZM136.578 431.442C124.714 366.119 126.938 303.83 143.32 251.787 148.915 234.2 156.491 217.305 165.903 201.43L185.048 196.441C172.547 214.805 162.867 234.937 156.33 256.169 140.488 305.919 138.331 365.715 149.589 428.611Z" transform="matrix(1.00129 0 0 1 544 35.9184)"/>
</g>
</svg>